<?xml version="1.0" encoding="UTF-8"?><svg xmlns="http://www.w3.org/2000/svg" width="835" height="844" style="font-family: Arial, sans-serif"><g class="path" style="cursor: move;"><path stroke="#4dac26" stroke-width="1.5" fill="none" d="M154.83,490.94L299.19,507.58"></path><path stroke="#4dac26" stroke-width="1.5" fill="white" class="arrowfront" d="M-1,0L15,5L15,-5Z" transform="translate(299.18903764803764,507.57667376952713) rotate(186.57533781133796)"></path></g><g class="path" style="cursor: move;"><path stroke="black" stroke-width="1.5" fill="none" d="M381.13,390.79L334.35,491.86"></path><path stroke="black" stroke-width="1.5" fill="white" class="arrowfront" d="M-1,0L15,5L15,-5Z" transform="translate(334.3515462515183,491.8645716836866) rotate(-65.16548006938781)"></path></g><g class="path" style="cursor: move;"><path stroke="#d01c8b" stroke-width="1.5" fill="none" d="M239.92,336.78L313.59,491.89"></path><path stroke="#d01c8b" stroke-width="1.5" fill="white" class="arrowfront" d="M-1,0L15,5L15,-5Z" transform="translate(313.5921614651239,491.8858336075431) rotate(244.59244675697855)"></path></g><g class="path" style="cursor: move;"><path stroke="#d01c8b" stroke-width="1.5" fill="none" d="M222.90,336.36L146.92,471.51"></path><path stroke="#d01c8b" stroke-width="1.5" fill="white" class="arrowfront" d="M-1,0L15,5L15,-5Z" transform="translate(146.92043067678546,471.50918319632837) rotate(-60.65735351267515)"></path></g><g class="path" style="cursor: move;"><path stroke="#d01c8b" stroke-width="1.5" fill="none" d="M217.25,422.13L153.87,476.04"></path><path stroke="#d01c8b" stroke-width="1.5" fill="white" class="arrowfront" d="M-1,0L15,5L15,-5Z" transform="translate(153.8676772597774,476.03542832773496) rotate(-40.37747764372513)"></path></g><g class="path" style="cursor: move;"><path stroke="#d01c8b" stroke-width="1.5" fill="none" d="M244.65,423.62L307.66,495.00"></path><path stroke="#d01c8b" stroke-width="1.5" fill="white" class="arrowfront" d="M-1,0L15,5L15,-5Z" transform="translate(307.66418374516763,495.0012269660849) rotate(228.56482733939953)"></path></g><g class="path" style="cursor: move;"><path stroke="black" stroke-width="1.5" fill="none" d="M110.47,392.62L129.06,469.60"></path><path stroke="black" stroke-width="1.5" fill="white" class="arrowfront" d="M-1,0L15,5L15,-5Z" transform="translate(129.06273888770096,469.595705839108) rotate(256.4233817054952)"></path></g><g style="cursor: move; touch-action: none;" transform="translate(324,510)"><path fill-opacity="0.7" stroke-width="2" z-index="1" d="M 0 0 m 20, 0 a 20,15 0 1,1 -40,0 a 20,15 0 1,1 40,0" fill="#00a2e0" stroke="#000000"></path><rect class="textbg" fill="#ffffff" width="31.149999618530273" height="18.33333396911621" x="-15.575000762939453" y="20.333332061767578"></rect><text class="nodelabel" y="35" text-anchor="middle">tone</text><path d="M-2,-6L2,-6L2,6L-2,6Z" fill="#000000"></path></g><g style="cursor: move; touch-action: none;" transform="translate(106,378)"><path fill-opacity="0.7" stroke-width="2" z-index="1" d="M 0 0 m 20, 0 a 20,15 0 1,1 -40,0 a 20,15 0 1,1 40,0" fill="#dddddd" stroke="#aaaaaa"></path><rect class="textbg" fill="#ffffff" width="82.73332977294922" height="18.33333396911621" x="-41.366668701171875" y="20.333332061767578"></rect><text class="nodelabel" y="35" text-anchor="middle">genetic drift</text></g><g style="cursor: move; touch-action: none;" transform="translate(232,323)"><path fill-opacity="0.7" stroke-width="2" z-index="1" d="M 0 0 m 20, 0 a 20,15 0 1,1 -40,0 a 20,15 0 1,1 40,0" fill="#ff7777" stroke="#ff7777"></path><rect class="textbg" fill="#ffffff" width="51.599998474121094" height="18.33333396911621" x="-25.80000114440918" y="20.333332061767578"></rect><text class="nodelabel" y="35" text-anchor="middle">contact</text></g><g style="cursor: move; touch-action: none;" transform="translate(389,377)"><path fill-opacity="0.7" stroke-width="2" z-index="1" d="M 0 0 m 20, 0 a 20,15 0 1,1 -40,0 a 20,15 0 1,1 40,0" fill="#dddddd" stroke="#aaaaaa"></path><rect class="textbg" fill="#ffffff" width="181.46665954589844" height="18.33333396911621" x="-90.73333740234375" y="20.333332061767578"></rect><text class="nodelabel" y="35" text-anchor="middle">internal &amp; external factors</text></g><g style="cursor: move; touch-action: none;" transform="translate(232,412)"><path fill-opacity="0.7" stroke-width="2" z-index="1" d="M 0 0 m 20, 0 a 20,15 0 1,1 -40,0 a 20,15 0 1,1 40,0" fill="#ff7777" stroke="#ff7777"></path><rect class="textbg" fill="#ffffff" width="78.28333282470703" height="18.33333396911621" x="-39.141666412353516" y="20.333332061767578"></rect><text class="nodelabel" y="35" text-anchor="middle">inheritance</text></g><g style="cursor: move; touch-action: none;" transform="translate(135,489)"><path fill-opacity="0.7" stroke-width="2" z-index="1" d="M 0 0 m 20, 0 a 20,15 0 1,1 -40,0 a 20,15 0 1,1 40,0" fill="#bed403" stroke="#000000"></path><rect class="textbg" fill="#ffffff" width="180.38333129882812" height="18.33333396911621" x="-90.19166564941406" y="20.333332061767578"></rect><text class="nodelabel" y="35" text-anchor="middle">frequency "derived" allele</text><path d="M-4,-6L7,0L-4,6Z" fill="#000000"></path></g></svg>